<?xml version="1.0" encoding="utf-8"?>
<!-- Generator: Adobe Illustrator 27.9.6, SVG Export Plug-In . SVG Version: 9.03 Build 54986)  -->
<svg version="1.1" id="Camada_2_00000059286280625759061310000017047029381110052787_"
	 xmlns="http://www.w3.org/2000/svg" xmlns:xlink="http://www.w3.org/1999/xlink" x="0px" y="0px" viewBox="0 0 511.9 511.9"
	 style="enable-background:new 0 0 511.9 511.9;" xml:space="preserve">
<style type="text/css">
	.st0{fill:#FFFFFF;}
</style>
<path class="st0" d="M273.9,511.9c-12,0-24,0-36,0c-1.3-0.3-2.6-0.7-3.9-0.8c-28.6-2.3-56.2-9-82.2-21.2
	C70.7,451.7,21.1,388.6,3.9,300.4c-1.8-9.2-2.6-18.7-3.9-28c0-10.6,0-21.3,0-31.9c0.6-4.6,1.2-9.2,1.8-13.8
	C10.6,157.1,42.3,100,97.2,56.4C153.4,11.9,218-5.4,289.1,3.3c52.2,6.4,98,27.6,137.2,62.7c44,39.4,71.4,88.3,81.8,146.4
	c1.7,9.3,2.6,18.7,3.9,28c0,10.6,0,21.3,0,31.9c-1.3,9.4-2.3,18.8-3.9,28.1c-17.1,102.3-98.7,186.3-200.6,206.4
	C296.4,509,285.1,510.2,273.9,511.9z M230.9,250c14-4.1,21.6-12.6,23.7-25.6c0.9-5.5,0.7-11.3,0.2-16.9
	c-1.7-19.4-12.8-33.1-30.6-37.4c-5.4-1.3-11.2-1.7-16.8-1.7c-29.1-0.2-58.3-0.2-87.4-0.3c-1.9,0-3.8,0-5.7,0c0,59.4,0,118,0,176.7
	c0.7,0.2,1.2,0.4,1.6,0.4c32.6,0,65.3,0.4,97.9-0.1c21.3-0.3,37.8-13.2,43.7-32.6c3.3-10.7,3.6-21.7,2.2-32.6
	C257.3,262.1,248.5,252.8,230.9,250z M398.4,283.2c-0.9-8.7-1.3-16.6-2.6-24.4c-4.4-24.8-19.1-40.7-43.3-44.7
	c-10.5-1.7-21.7-1.7-32.2-0.2c-18.9,2.6-33.3,13.1-42.1,30.2c-10.2,19.8-12.1,40.5-4.8,61.8c4.6,13.4,12.6,24.5,25.4,30.7
	c27.1,13.2,54,11.5,79.3-4.7c13.9-8.9,19.4-22.9,19.6-39.4c-12,0-23.7,0-35.3,0c-2.1,14.1-7.7,21.8-17.6,24.7
	c-19.7,5.9-37.5-10.6-34.9-34.1C338.9,283.2,368,283.2,398.4,283.2z M300.4,203.2c23.8,0,47.1,0,70.4,0c0-5.9,0-11.5,0-17
	c-23.7,0-47,0-70.4,0C300.4,192,300.4,197.5,300.4,203.2z"/>
<path class="st0" d="M149.7,318c0-17.5,0-34.8,0-52.4c18.6,0,37-1,55.2,0.3c20.4,1.4,30.6,22.1,21.2,40.3c-3.6,6.9-9.6,11.4-17,11.6
	C189.5,318.4,169.7,318,149.7,318z"/>
<path class="st0" d="M149.6,238.8c0-15.1,0-29.3,0-43.9c1.5-0.1,2.8-0.3,4-0.3c14.2,0,28.3-0.1,42.5,0c9.3,0,16.1,5.1,17.7,14.3
	c0.9,4.8,0.9,10,0.1,14.8c-1.7,10.2-8,15.1-18.5,15.1C180.4,238.8,165.3,238.8,149.6,238.8z"/>
<path class="st0" d="M309.2,265.2c0.9-17.2,11.6-27.1,27.9-26.3c15.4,0.8,25.4,11.3,24.7,26.3C344.4,265.2,327,265.2,309.2,265.2z"
	/>
</svg>
