<?xml version="1.0" encoding="utf-8"?>
<!-- Generator: Adobe Illustrator 27.9.6, SVG Export Plug-In . SVG Version: 9.03 Build 54986)  -->
<svg version="1.1" id="Camada_2_00000103227689121894385280000014786326451196327096_"
	 xmlns="http://www.w3.org/2000/svg" xmlns:xlink="http://www.w3.org/1999/xlink" x="0px" y="0px" viewBox="0 0 511.8 511.7"
	 style="enable-background:new 0 0 511.8 511.7;" xml:space="preserve">
<style type="text/css">
	.st0{fill:#FFFFFF;}
</style>
<g id="Camada_1-2">
	<g>
		<path class="st0" d="M509,217.9c-11.2-70-45.3-126.1-101.9-168.4C368.8,20.9,325.3,5,277.6,0.9c-1,0-2.1,0.2-2.7-0.9h-39
			c-7.6,2.4-15.6,2.3-23.4,3.7C156.7,13.7,109,39.1,70,80.2c-37.8,39.9-59.9,87.4-67.8,141.7c-0.7,4.7-0.4,9.5-2.2,14v40
			c2.4,8,2.2,16.3,3.9,24.4c20,97.2,76.5,163.2,169.5,197.6c18.6,6.9,38.1,10.5,57.8,12.7c1.3,0.1,2.8-0.4,3.6,1.1h40
			c6-2.1,12.4-1.7,18.5-2.8c105.7-19.2,175-80.1,208.3-182c5-15.3,7.5-31.3,9.1-47.4c0.2-1.2-0.3-2.7,1.1-3.6v-40
			C509.7,230.1,510,223.9,509,217.9L509,217.9z M383.7,306.5c0,43.6-33.5,77.2-77.2,77.3c-33.8,0.1-67.6,0.1-101.4,0
			c-43.6-0.1-77.1-33.8-77.2-77.4V205.5c0.1-44,33.5-77.5,77.5-77.6h51c16.8,0,33.6,0,50.3,0.1c43.3,0.2,76.9,33.7,77,77.1
			C383.8,238.9,383.8,272.7,383.7,306.5z"/>
		<path class="st0" d="M255.9,189.9c-36.8,0-66.2,29.5-66.1,66.4c0.1,36.5,29.6,65.7,66.3,65.7c36.3-0.1,65.8-29.5,65.9-65.6
			C322,219.4,292.7,189.9,255.9,189.9L255.9,189.9z M255.7,296.2c-22.6-0.1-40.4-18.3-40.1-40.9c0.4-22.4,18.4-40,40.8-39.7
			c22.4,0.2,40,18.2,39.8,40.6C296,278.7,278.1,296.3,255.7,296.2L255.7,296.2z"/>
		<path class="st0" d="M322.1,173.4c-8.8,0.2-16.1,7.6-16.1,16.4s7.5,16.3,16.7,16.2c8.9-0.1,16.2-7.5,16.1-16.3
			C338.7,180.7,331.1,173.2,322.1,173.4L322.1,173.4z"/>
	</g>
</g>
</svg>
