<?xml version="1.0" encoding="utf-8"?>
<!-- Generator: Adobe Illustrator 27.9.6, SVG Export Plug-In . SVG Version: 9.03 Build 54986)  -->
<svg version="1.1" id="Camada_2_00000122702658078083132330000012550260995112011146_"
	 xmlns="http://www.w3.org/2000/svg" xmlns:xlink="http://www.w3.org/1999/xlink" x="0px" y="0px" viewBox="0 0 383.5 383.4"
	 style="enable-background:new 0 0 383.5 383.4;" xml:space="preserve">
<style type="text/css">
	.st0{fill:#FFFFFF;}
</style>
<path class="st0" d="M383.5,190.1c-1.1-1.5-1.2-3,0-4.5V190.1z"/>
<path class="st0" d="M383.5,199.8c-1.2-1.5-1.1-3,0-4.5V199.8z"/>
<path class="st0" d="M182.1,0.6c-0.8,0-1.7,0.6-2.2-0.6h2.2c0.3,0.2,0.3,0.3,0.2,0.4C182.3,0.6,182.2,0.6,182.1,0.6L182.1,0.6z"/>
<path class="st0" d="M202.4,0.6c-0.8,0-1.5,0-2.2,0c-0.3-0.1-0.4-0.2-0.3-0.4C200,0,200.1,0,200.1,0h2.2c0.2,0.1,0.3,0.3,0.2,0.4
	C202.6,0.6,202.5,0.6,202.4,0.6L202.4,0.6z"/>
<path class="st0" d="M182.1,0.6c0-0.2,0-0.4,0.1-0.6h1.5c0.2,0.2,0.3,0.3,0.2,0.4s-0.2,0.2-0.3,0.2C183.2,0.6,182.6,0.6,182.1,0.6z"
	/>
<path class="st0" d="M183.7,0.6c0-0.2,0-0.4,0.1-0.6h1.5C184.9,0.7,184.3,0.7,183.7,0.6L183.7,0.6z"/>
<path class="st0" d="M200.2,0c0,0.2,0,0.4,0.1,0.6c-0.6,0.1-1.2,0-1.6-0.6H200.2z"/>
<path class="st0" d="M202.4,0.6c0-0.2,0-0.4,0-0.6h1.5c0.2,0.1,0.3,0.3,0.2,0.4s-0.1,0.2-0.2,0.2C203.4,0.6,202.9,0.6,202.4,0.6
	L202.4,0.6z"/>
<path class="st0" d="M203.9,0.6c0-0.2,0-0.4,0-0.6h1.5C205.2,0.9,204.6,0.7,203.9,0.6L203.9,0.6z"/>
<path class="st0" d="M382.9,181.8c-0.1-0.6-0.2-1.2,0.6-1.5v1.5C383.2,182.2,383,182.2,382.9,181.8z"/>
<path class="st0" d="M382.9,181.8c0.2,0,0.4,0,0.6,0v1.5C382.8,183,382.7,182.4,382.9,181.8z"/>
<path class="st0" d="M383.5,176.6c-0.7-3.9-0.4-7.9-0.9-11.8c-2.7-21-9.2-40.9-18.6-59.7c-12-24.1-28.7-44.6-49.4-61.8
	c-24.1-20-51.6-33.2-82.3-40c-8.4-1.9-16.9-2.4-25.5-3.2h-1.5c-0.5,0.5-1.1,0.3-1.7,0.4c-0.5,0-0.9,0-1.4,0c-0.6,0-1.2,0-1.9,0
	c-0.6,0-1.2,0.1-1.7-0.4h-13.5c-0.5,0.5-1.1,0.3-1.7,0.4c-0.5,0-0.9,0-1.4,0c-0.7-0.1-1.5,0.2-2.2-0.4h-3l0,0
	c-3.8,0.7-7.7,0.4-11.4,0.9c-18.8,2.6-36.8,7.8-54,15.8C88.6,27.3,68.6,41.7,51.3,60.2c-15.4,16.4-27.4,34.9-36.2,55.5
	c-8.6,20.1-14.2,40.9-14.8,63C-0.1,193.5-0.5,208.4,2,223c7.7,45.1,28.7,82.9,62.8,113.2c25.6,22.8,55.5,37.3,89.1,44.2
	c17,3.5,34.1,3.3,51.3,2.9c14.9-0.4,29.2-3.2,43.3-7.6c36.2-11.3,66.6-31.4,90.9-60.5c23.5-28,37.9-60.2,42.9-96.4
	c0.6-4,0.2-8.2,1.1-12.2v-6.7c-0.6-1.5-0.6-3,0-4.5v-5.2c-0.6-1.5-0.6-3,0-4.5v-2.2c-0.5-0.4-0.4-1-0.4-1.5s-0.1-1.1,0.4-1.5v-3.9
	H383.5z M136.3,289.2c0,2.6-0.8,3.3-3.3,3.3c-11.7-0.1-23.4-0.2-35.2,0c-3,0-3.4-1-3.4-3.6c0.1-21.3,0-42.6,0-64l0,0
	c0-21.3,0-42.6-0.1-64c0-2.7,0.7-3.3,3.3-3.2c11.7,0.2,23.4,0.1,35.2,0c2.4,0,3.5,0.3,3.4,3.2C136.2,203.7,136.2,246.4,136.3,289.2z
	 M115,139.3L115,139.3c-13.4,0-24.1-10.9-24.1-24.3c0-13.3,11-24.3,24.3-24.3s24.3,11,24.3,24.2C139.5,128.5,128.6,139.3,115,139.3z
	 M289.2,292.5c-11.6-0.2-23.2-0.2-34.8,0c-2.8,0-3.5-0.7-3.5-3.5c0.1-22.1,0.1-44.1,0-66.2c0-5-0.4-10-1.4-14.9
	c-2.1-9.7-7.6-15.4-16-16.4c-12.1-1.5-20.9,2.4-25.4,11.3c-3.5,7-4.1,14.6-4.1,22.2c-0.1,21.2-0.1,42.4,0,63.6c0,3-0.7,4-3.8,3.9
	c-11.5-0.2-22.9-0.1-34.4,0c-2.5,0-3.4-0.5-3.4-3.2c0.1-42.9,0.1-85.8,0-128.7c0-2.3,0.6-2.9,2.9-2.9c11.5,0.1,22.9,0.1,34.4,0
	c2.5,0,2.9,0.8,2.8,3c-0.1,4.9,0,9.9,0,15.9l0,0c15.6-24.9,44.1-25.7,63.6-18.2c13.9,5.3,20.5,16.6,23.8,30.4
	c2.3,9.9,2.8,20,2.9,30.1c0.1,23.3,0,46.6,0.1,69.9C292.9,291.7,292.2,292.6,289.2,292.5z"/>
</svg>
