<?xml version="1.0" encoding="utf-8"?>
<!-- Generator: Adobe Illustrator 27.9.6, SVG Export Plug-In . SVG Version: 9.03 Build 54986)  -->
<svg version="1.1" id="Camada_2_00000059286280625759061310000017047029381110052787_"
	 xmlns="http://www.w3.org/2000/svg" xmlns:xlink="http://www.w3.org/1999/xlink" x="0px" y="0px" viewBox="0 0 511.9 511.9"
	 style="enable-background:new 0 0 511.9 511.9;" xml:space="preserve">
<style type="text/css">
	.st0{fill:#FFFFFF;}
</style>
<g id="Camada_1-2">
	<path class="st0" d="M235.9,0h39c5,1.7,10.4,1.5,15.6,2.3c51.1,7.3,96.3,27.7,134.9,62c46.2,41.2,74.1,92.4,83.7,153.7
		c0.9,6,0.7,12.2,2.8,18v41c-2.4,6.6-2.1,13.6-3.3,20.4c-10,57.7-36.2,106.8-79.2,146.5c-38.4,35.6-83.7,57.2-135.5,65.2
		c-6,0.9-12.2,0.7-18,2.8h-41c-4.3-2.1-9-1.6-13.5-2.2c-47.4-6.8-89.9-24.8-126.9-55.2c-48.9-40.3-79.2-91.6-90.7-154
		c-1.5-8.1-1.6-16.4-3.8-24.4v-40c1.2-0.8,0.9-2,1-3.1c5.2-54.1,25.1-102.1,60.7-143.2c40-46.4,90.4-75,150.8-85.8
		C220.3,2.3,228.3,2.3,235.9,0z M310.3,206.1c1.1,0.3,1.5,0.4,1.8,0.5c1.1,0.7,2.2,1.5,3.3,2.3c19.3,13.1,40.6,20.5,64,21.4
		c3.6,0.1,5-0.8,4.9-4.6c-0.2-12.8-0.2-25.7,0-38.5c0-3.1-0.8-4.4-4.1-4.4c-5.3,0-10.6-1.1-15.7-2.6c-29.7-8.4-50.7-33.2-53.6-64
		c-0.5-4.9-1.8-6.7-7-6.5c-11.6,0.5-23.3,0.4-35,0c-5.2-0.2-6.3,1.4-6.3,6.4c0.1,63.5,0.1,126.9,0,190.4c0,3.7-0.2,7.3-0.6,11
		c-2.5,22.6-25.2,40.3-47.7,37.1c-24.6-3.5-41.7-25.5-37.9-48.9c4.1-25.5,26.6-41,52.3-36c2.9,0.5,4.3,0.5,4.2-3.1
		c-0.1-13.7-0.1-27.3,0-41c0-2.5-0.7-3.4-3.3-3.8c-9.4-1.2-18.6-0.6-27.8,1c-49.3,9-81.9,56.6-72.6,106c9.2,48.5,58.3,81.4,107,71.6
		c44.6-9,74.5-45.4,74.5-91c0-27.3-0.2-54.6-0.3-81.9C310.3,220.5,310.3,213.6,310.3,206.1L310.3,206.1z"/>
</g>
</svg>
