<?xml version="1.0" encoding="UTF-8"?>
<svg id="Camada_2" data-name="Camada 2" xmlns="http://www.w3.org/2000/svg" viewBox="0 0 1009.67 242.01">
  <defs>
    <style>
      .cls-1 {
        fill: #643c6c;
      }

      .cls-1, .cls-2, .cls-3 {
        stroke-width: 0px;
      }

      .cls-2 {
        fill: #dd2478;
      }

      .cls-3 {
        fill: #fff;
      }
    </style>
  </defs>
  <g id="Camada_1-2" data-name="Camada 1">
    <g>
      <path class="cls-2" d="m158.16,80.58c0-9.55-1.74-18.7-4.86-27.17-.04-.17-.09-.33-.15-.49-.31-.83-.63-1.65-.97-2.46-1.06-2.57-4.2-3.5-6.53-1.99-.03.02-.05.03-.08.05-1.8,1.16-2.46,3.46-1.64,5.44.06.15.11.29.17.44,0,.02,0,.05,0,.07,3.26,8.08,5.08,16.88,5.08,26.11,0,13.93-4.1,26.91-11.13,37.84-2.37-1.01-5.03-1.48-7.82-1.24-7.76.66-14.1,6.9-14.87,14.65-1.03,10.33,7.61,18.99,17.94,17.98,7.75-.76,13.99-7.07,14.68-14.83.36-4.05-.78-7.83-2.91-10.86,8.26-12.5,13.08-27.47,13.08-43.54Zm-19.21,54.38c-.56,2.92-2.91,5.27-5.82,5.82-5.22,1-9.73-3.51-8.73-8.73.56-2.92,2.91-5.27,5.82-5.82,5.22-1,9.73,3.51,8.73,8.73Z"/>
      <path class="cls-2" d="m111.15,147.07c-1.17-1.8-3.46-2.44-5.44-1.62-.14.06-.29.11-.44.17-.02,0-.05,0-.07,0-8.07,3.29-16.86,5.15-26.09,5.19-13.93.05-26.92-3.99-37.88-10.98,1-2.38,1.46-5.04,1.21-7.83-.69-7.76-6.95-14.07-14.71-14.81-10.34-.99-18.96,7.69-17.91,18.01.79,7.75,7.12,13.96,14.88,14.62,4.06.34,7.83-.81,10.85-2.95,12.53,8.21,27.52,12.97,43.59,12.91,9.55-.04,18.69-1.81,27.16-4.97.16-.04.33-.09.49-.15.82-.31,1.64-.64,2.45-.98,2.56-1.07,3.48-4.21,1.96-6.54-.02-.03-.03-.05-.05-.08Zm-86.46-6.29c-2.92-.55-5.28-2.89-5.85-5.8-1.02-5.21,3.48-9.74,8.7-8.76,2.92.55,5.28,2.89,5.85,5.8,1.02,5.21-3.48,9.74-8.7,8.76Z"/>
      <path class="cls-2" d="m12.63,111.82s.05-.03.08-.05c1.8-1.17,2.44-3.46,1.62-5.44-.06-.14-.11-.29-.17-.44,0-.02,0-.05,0-.07-3.29-8.07-5.15-16.86-5.18-26.09-.05-13.93,4-26.92,10.99-37.88,2.38,1,5.04,1.46,7.83,1.21,7.76-.69,14.07-6.95,14.82-14.71.99-10.34-7.68-18.96-18.01-17.91-7.75.79-13.96,7.12-14.63,14.88-.35,4.06.81,7.83,2.95,10.85C4.7,48.7-.06,63.68,0,79.76c.03,9.55,1.8,18.69,4.96,27.16.04.16.09.33.15.49.31.82.64,1.64.98,2.45,1.07,2.56,4.21,3.48,6.54,1.96Zm6.38-86.51c.55-2.92,2.89-5.28,5.8-5.84,5.21-1.02,9.74,3.48,8.76,8.7-.55,2.92-2.89,5.28-5.8,5.84-5.21,1.02-9.74-3.48-8.76-8.7Z"/>
      <path class="cls-2" d="m115.34,28.26c.77,7.75,7.09,14,14.86,14.67,10.35.89,18.88-7.87,17.73-18.19-.86-7.74-7.26-13.89-15.03-14.47-4.06-.3-7.82.89-10.82,3.06C109.47,5.24,94.43.63,78.36.85c-9.55.13-18.67,1.99-27.11,5.23-.16.04-.33.1-.49.16-.82.32-1.64.66-2.44,1-2.55,1.1-3.44,4.25-1.9,6.56.02.03.03.05.05.08,1.19,1.79,3.49,2.41,5.46,1.56.14-.06.29-.12.44-.18.02,0,.05,0,.07,0,8.03-3.37,16.81-5.32,26.04-5.44,13.93-.19,26.96,3.73,37.99,10.6-.98,2.39-1.41,5.05-1.13,7.84Zm17.66-8.95c2.92.52,5.31,2.83,5.9,5.74,1.07,5.2-3.38,9.77-8.61,8.85-2.92-.52-5.31-2.83-5.9-5.74-1.07-5.2,3.38-9.77,8.61-8.85Z"/>
    </g>
    <g>
      <path class="cls-1" d="m405.59,70.91c-23.35,3.21-43.52,5.98-43.52,34.14,0,16.76,11.62,26.38,31.88,26.38,9.58,0,18.05-2.49,24.49-7.19.67-.49,1.49-.6,2.27-.31.78.3,1.35.96,1.53,1.79l.02.08c.41,1.86,2.03,3.16,3.93,3.16h17.23c2.21,0,4.01-1.8,4.01-4.01v-55.73c0-25.98-12.52-37.56-40.6-37.56-25.78,0-39.75,10.1-41.54,30.02-.1,1.1.28,2.21,1.03,3.03.76.84,1.85,1.32,2.98,1.32h16.85c1.85,0,3.46-1.29,3.91-3.14,1.79-7.3,6.76-10.7,15.64-10.7,9.36,0,14.95,3.32,14.95,8.89s-2.09,8.05-15.06,9.84Zm-17.31,31.68c0-6.61,2.94-10.99,17.94-13.83,5.66-1.06,9.14-1.92,11.62-2.88.28-.11.56-.16.84-.16.48,0,.95.15,1.37.44.68.48,1.07,1.25,1.06,2.08l-.08,4.47c-.19,10.94-9.67,19.52-21.59,19.52-7.51,0-11.16-3.16-11.16-9.64Zm34.74,23.05h0s0,0,0,0h0Z"/>
      <rect class="cls-1" x="456.67" width="26.21" height="128.97" rx="4.01" ry="4.01"/>
      <path class="cls-1" d="m532.8,70.91c-23.35,3.21-43.52,5.98-43.52,34.14,0,16.76,11.62,26.38,31.88,26.38,9.58,0,18.05-2.49,24.49-7.19.67-.49,1.49-.6,2.27-.31.78.3,1.35.96,1.53,1.79l.02.08c.41,1.86,2.03,3.16,3.93,3.16h17.23c2.21,0,4.01-1.8,4.01-4.01v-55.73c0-25.98-12.52-37.56-40.6-37.56-25.78,0-39.75,10.1-41.54,30.02-.1,1.1.28,2.21,1.03,3.03.76.84,1.85,1.32,2.98,1.32h16.85c1.85,0,3.46-1.29,3.91-3.14,1.79-7.3,6.76-10.7,15.64-10.7,9.36,0,14.95,3.32,14.95,8.89s-2.09,8.05-15.06,9.84Zm-17.31,31.68c0-6.61,2.94-10.99,17.94-13.83,5.66-1.06,9.14-1.92,11.62-2.88.28-.11.56-.16.84-.16.48,0,.95.15,1.37.44.68.48,1.07,1.25,1.06,2.08l-.08,4.47c-.19,10.94-9.67,19.52-21.59,19.52-7.51,0-11.16-3.16-11.16-9.64Zm34.74,23.05h0s0,0,0,0h0Z"/>
      <path class="cls-1" d="m636.36,31.66c-9.29,0-16.89,2.94-23.23,9-.78.75-1.75.72-2.4.45-.79-.34-1.27-1.07-1.27-1.94V3.72c0-2.05-1.67-3.72-3.72-3.72h-18.4c-2.05,0-3.72,1.67-3.72,3.72v121.54c0,2.05,1.67,3.72,3.72,3.72h17.88c2.01,0,3.68-1.64,3.71-3.65v-.39c.02-1.04.7-1.69,1.33-1.95.81-.33,1.67-.17,2.3.44,5.5,5.32,12.8,8.01,21.7,8.01,25.01,0,41.16-19.95,41.16-50.83s-15.34-48.94-39.08-48.94Zm12.49,50.64c0,16.17-8.33,27.47-20.26,27.47s-20.07-10.91-20.07-25.95c0-19.61,6.69-29.55,19.88-29.55s20.45,9.17,20.45,28.03Z"/>
      <path class="cls-1" d="m725.27,31.66c-25.92,0-39.9,10.21-41.57,30.34-.09,1.03.27,2.05.97,2.82.7.77,1.71,1.21,2.74,1.21h17.41c1.73,0,3.22-1.2,3.62-2.91,1.74-7.46,6.73-10.93,15.69-10.93s14.95,3.32,14.95,8.89-2.09,8.05-15.06,9.84c-23.35,3.21-43.52,5.98-43.52,34.14,0,16.76,11.62,26.38,31.88,26.38,9.78,0,18.38-2.58,24.86-7.47.57-.43,1.3-.53,1.99-.27.7.26,1.2.85,1.35,1.57.05.26.11.53.17.78.39,1.72,1.89,2.92,3.63,2.92h17.77c2.05,0,3.72-1.67,3.72-3.72v-56.03c0-25.98-12.52-37.56-40.6-37.56Zm14.29,56.13l-.09,4.93c-.19,10.94-9.67,19.52-21.59,19.52-7.51,0-11.16-3.16-11.16-9.64s2.94-10.99,17.94-13.83c5.94-1.11,9.39-1.98,11.93-3,.27-.11.55-.16.83-.16.43,0,.85.13,1.22.39.6.41.93,1.07.92,1.8Z"/>
      <path class="cls-1" d="m830.7,54.33v-18.96c0-2.05-1.67-3.72-3.72-3.72h-.29c-7.75,0-15.92.59-23.22,7.69-.78.75-1.74.73-2.38.46-.81-.34-1.29-1.07-1.29-1.96,0-2.05-1.67-3.72-3.72-3.72h-17.26c-2.05,0-3.72,1.67-3.72,3.72v87.41c0,2.05,1.67,3.72,3.72,3.72h18.78c2.05,0,3.72-1.67,3.72-3.72v-45.6c0-14.65,7.12-21.78,21.78-21.78,1.17,0,2.36.05,3.52.15,1.05.08,2.11-.26,2.89-.97.77-.71,1.2-1.67,1.2-2.72Z"/>
      <path class="cls-1" d="m874.09,31.66c-28.32,0-45.91,18.46-45.91,48.18,0,34.23,15.96,51.59,47.42,51.59,19.03,0,33.73-9.66,40.33-26.51.44-1.12.29-2.38-.39-3.38-.7-1.02-1.85-1.64-3.09-1.64h-19.24c-1.45,0-2.79.89-3.4,2.25-2.24,4.97-8.26,8.18-15.33,8.18-10.65,0-18.03-7.17-19.76-19.17-.09-.6.09-1.18.49-1.64.42-.48,1.02-.75,1.65-.75h58.07c1.01,0,1.96-.4,2.67-1.13.7-.71,1.07-1.65,1.05-2.64-.8-34.9-16.2-53.35-44.54-53.35Zm16.86,39.25c-.42.48-1.02.75-1.65.75h-31.59c-.64,0-1.24-.28-1.65-.78-.42-.5-.59-1.17-.46-1.81,1.89-9.91,8.85-16.32,17.73-16.32,7.3,0,16.42,4.33,18.11,16.54.08.59-.09,1.16-.49,1.62Z"/>
      <path class="cls-1" d="m993.82,76.46c-4.74-1.87-10.78-3.44-17.17-5.1-3.48-.9-7.08-1.84-10.77-2.89-10.09-2.86-14.6-4.96-14.6-9.86s4.52-6.99,13.82-6.99c10.02,0,14.57,2.65,16.24,9.44.42,1.7,1.9,2.88,3.61,2.88h18.04c1.07,0,2.1-.47,2.81-1.28.7-.81,1.03-1.88.89-2.93-2.55-18.89-15.9-28.07-40.83-28.07-14.95,0-40.03,3.7-40.03,28.46,0,9.46,3.96,16.57,12.12,21.71,6.91,4.34,15.97,7.02,31.33,10.72,8.15,1.94,14.38,3.9,14.38,9.86,0,8.02-10.99,8.89-15.71,8.89-10.49,0-17.19-3.94-18.37-10.8-.31-1.76-1.84-3.04-3.65-3.04h-19.58c-1.07,0-2.09.46-2.8,1.26-.69.78-1.02,1.82-.9,2.84,2.21,18.71,19.22,29.88,45.49,29.88s41.54-11.55,41.54-31.68c0-11.68-4.89-18.86-15.85-23.29Z"/>
    </g>
    <path class="cls-1" d="m330.98,71.69v53.27c0,2.21,1.8,4.01,4.01,4.01h17.61c2.21,0,4.01-1.8,4.01-4.01v-61.42c0-18.17-14.03-31.88-32.63-31.88-10.57,0-18.24,3.62-23.45,11.06-.46.65-1.17,1.03-1.95,1.05-.02,0-.04,0-.06,0-.76,0-1.46-.35-1.94-.95-6.41-8.24-12.63-11.16-23.78-11.16-10.06,0-16.94,2.54-22.32,8.23-.83.88-1.91.88-2.66.58-.75-.3-1.55-1.05-1.55-2.33,0-2.21-1.8-4.01-4.01-4.01h-16.67c-2.21,0-4.01,1.8-4.01,4.01v86.81c0,2.21,1.8,4.01,4.01,4.01h18.18c2.21,0,4.01-1.8,4.01-4.01v-53.46c0-11.56,4.78-17.42,14.2-17.42s14,2.6,14,17.99v52.89c0,2.21,1.8,4.01,4.01,4.01h18.18c2.21,0,4.01-1.8,4.01-4.01v-52.51c0-11.08,6.29-19.12,14.95-19.12,8.13,0,13.82,7.55,13.82,18.36Z"/>
    <rect class="cls-2" x="659.21" y="162.01" width="350.46" height="80" rx="13.48" ry="13.48"/>
    <g>
      <path class="cls-3" d="m729.57,190.59l-8.76,28.06c-.1.31-.38.52-.71.52h-3.98c-.33,0-.61-.21-.71-.52l-6.25-20.59c-.21-.7-1.2-.7-1.42,0l-6.25,20.59c-.09.31-.38.52-.71.52h-3.98c-.32,0-.61-.21-.71-.52l-8.81-28.06c-.15-.48.21-.96.71-.96h3.44c.33,0,.63.22.71.54l5.96,21.75c.2.72,1.21.73,1.42.01l6.44-21.78c.09-.31.38-.53.71-.53h3.9c.33,0,.62.22.71.53l6.28,21.77c.21.72,1.23.71,1.42-.01l5.85-21.74c.09-.32.38-.55.71-.55h3.28c.5,0,.85.48.71.96Z"/>
      <path class="cls-3" d="m771.61,206.23h-22.12c-.44,0-.79.38-.74.81.3,2.52,1.28,4.53,2.92,6.01,1.81,1.64,4.02,2.45,6.6,2.45,2.12,0,3.89-.49,5.31-1.48,1.28-.89,2.22-2.06,2.81-3.49.12-.28.38-.47.68-.47h3.77c.52,0,.87.52.69,1.01-.86,2.38-2.34,4.35-4.42,5.91-2.37,1.78-5.32,2.67-8.84,2.67-2.8,0-5.31-.63-7.52-1.89-2.21-1.26-3.94-3.05-5.2-5.36-1.26-2.32-1.89-5-1.89-8.06s.61-5.73,1.83-8.03c1.22-2.3,2.94-4.07,5.15-5.31s4.75-1.86,7.63-1.86,5.28.61,7.44,1.83c2.16,1.22,3.82,2.9,4.99,5.04,1.17,2.14,1.75,4.56,1.75,7.25,0,.73-.03,1.49-.1,2.29-.03.38-.36.68-.74.68Zm-5.47-8.81c-.83-1.35-1.95-2.37-3.37-3.07-1.42-.7-2.99-1.05-4.72-1.05-2.48,0-4.59.79-6.33,2.37-1.57,1.42-2.53,3.34-2.89,5.75-.07.44.29.83.74.83h17.05c.42,0,.77-.35.74-.76-.1-1.55-.5-2.9-1.22-4.06Z"/>
      <path class="cls-3" d="m789.7,196.34c1.22-2.28,2.9-4.05,5.04-5.31,2.14-1.26,4.54-1.89,7.2-1.89,2.3,0,4.44.53,6.42,1.59,1.28.69,2.36,1.51,3.25,2.48.46.5,1.28.18,1.28-.5v-12.7c0-.41.33-.74.74-.74h3.48c.41,0,.74.33.74.74v38.41c0,.41-.33.74-.74.74h-3.48c-.41,0-.74-.33-.74-.74v-2.48c0-.69-.85-.99-1.3-.47-.82.95-1.83,1.78-3.02,2.48-1.91,1.13-4.13,1.7-6.68,1.7s-5-.65-7.14-1.94c-2.14-1.29-3.82-3.11-5.04-5.44-1.22-2.34-1.83-4.99-1.83-7.98s.61-5.67,1.83-7.95Zm21.83,2.18c-.9-1.65-2.11-2.92-3.64-3.8-1.53-.88-3.21-1.32-5.04-1.32s-3.5.43-5.01,1.29c-1.51.86-2.71,2.12-3.61,3.77-.9,1.65-1.35,3.59-1.35,5.82s.45,4.23,1.35,5.9c.9,1.67,2.1,2.95,3.61,3.83,1.51.88,3.18,1.32,5.01,1.32s3.51-.44,5.04-1.32c1.53-.88,2.74-2.16,3.64-3.83.9-1.67,1.35-3.62,1.35-5.85s-.45-4.17-1.35-5.82Z"/>
      <path class="cls-3" d="m836.92,196.34c1.22-2.28,2.9-4.05,5.04-5.31,2.14-1.26,4.54-1.89,7.2-1.89,2.3,0,4.44.53,6.42,1.59,1.28.69,2.36,1.51,3.25,2.48.46.5,1.28.18,1.28-.5v-12.7c0-.41.33-.74.74-.74h3.48c.41,0,.74.33.74.74v38.41c0,.41-.33.74-.74.74h-3.48c-.41,0-.74-.33-.74-.74v-2.48c0-.69-.85-.99-1.3-.47-.82.95-1.83,1.78-3.02,2.48-1.91,1.13-4.13,1.7-6.68,1.7s-5-.65-7.14-1.94c-2.14-1.29-3.82-3.11-5.04-5.44-1.22-2.34-1.83-4.99-1.83-7.98s.61-5.67,1.83-7.95Zm21.83,2.18c-.9-1.65-2.11-2.92-3.64-3.8-1.53-.88-3.21-1.32-5.04-1.32s-3.5.43-5.01,1.29c-1.51.86-2.71,2.12-3.61,3.77-.9,1.65-1.35,3.59-1.35,5.82s.45,4.23,1.35,5.9c.9,1.67,2.1,2.95,3.61,3.83,1.51.88,3.18,1.32,5.01,1.32s3.51-.44,5.04-1.32c1.53-.88,2.74-2.16,3.64-3.83.9-1.67,1.35-3.62,1.35-5.85s-.45-4.17-1.35-5.82Z"/>
      <path class="cls-3" d="m884.31,183.86c-.65-.65-.97-1.44-.97-2.37s.32-1.72.97-2.37c.57-.57,1.25-.89,2.05-.96,1.03-.09,2.09.34,2.76,1.12.53.61.79,1.35.79,2.21s-.26,1.59-.79,2.21c-.67.79-1.73,1.21-2.76,1.12-.8-.07-1.48-.39-2.05-.96Zm4.74,6.51v28.06c0,.41-.33.74-.74.74h-3.43c-.41,0-.74-.33-.74-.74v-28.06c0-.41.33-.74.74-.74h3.43c.41,0,.74.33.74.74Z"/>
      <path class="cls-3" d="m931.31,192.35c2.23,2.17,3.34,5.31,3.34,9.41v16.67c0,.41-.33.74-.74.74h-3.37c-.41,0-.74-.33-.74-.74v-15.97c0-2.95-.74-5.2-2.21-6.77-1.47-1.56-3.49-2.35-6.04-2.35s-4.65.81-6.17,2.43c-1.53,1.62-2.29,3.97-2.29,7.06v15.59c0,.41-.33.74-.74.74h-3.43c-.41,0-.74-.33-.74-.74v-28.06c0-.41.33-.74.74-.74h3.43c.41,0,.74.33.74.74v1.37c0,.67.8.98,1.27.51.76-.77,1.66-1.41,2.69-1.92,1.67-.83,3.51-1.24,5.53-1.24,3.59,0,6.5,1.09,8.73,3.26Z"/>
      <path class="cls-3" d="m972.36,190.82c1.19.69,2.18,1.48,2.99,2.39.46.51,1.29.2,1.29-.48v-2.36c0-.41.33-.74.74-.74h3.48c.41,0,.74.33.74.74v29.45c0,2.7-.58,5.09-1.73,7.2-1.15,2.1-2.79,3.75-4.93,4.93-2.14,1.19-4.63,1.78-7.47,1.78-3.88,0-7.12-.92-9.7-2.75-2.34-1.66-3.82-3.87-4.42-6.62-.1-.45.27-.88.73-.88h3.44c.31,0,.58.2.69.5.59,1.57,1.64,2.85,3.17,3.84,1.69,1.1,3.72,1.64,6.09,1.64,2.7,0,4.9-.84,6.6-2.53,1.71-1.69,2.56-4.06,2.56-7.12v-3.9c0-.69-.84-.99-1.29-.48-.82.94-1.83,1.77-3.02,2.49-1.91,1.15-4.13,1.73-6.68,1.73s-5-.65-7.14-1.94c-2.14-1.29-3.82-3.11-5.04-5.44-1.22-2.34-1.83-4.99-1.83-7.98s.61-5.67,1.83-7.95c1.22-2.28,2.9-4.05,5.04-5.31,2.14-1.26,4.52-1.89,7.14-1.89s4.79.56,6.71,1.67Zm2.94,7.71c-.9-1.65-2.11-2.92-3.64-3.8-1.53-.88-3.21-1.32-5.04-1.32s-3.5.43-5.01,1.29c-1.51.86-2.71,2.12-3.61,3.77-.9,1.65-1.35,3.59-1.35,5.82s.45,4.23,1.35,5.9c.9,1.67,2.1,2.95,3.61,3.83,1.51.88,3.18,1.32,5.01,1.32s3.51-.44,5.04-1.32c1.53-.88,2.74-2.16,3.64-3.83.9-1.67,1.35-3.62,1.35-5.85s-.45-4.17-1.35-5.82Z"/>
    </g>
    <path class="cls-2" d="m73.64,61.41c-1.9-2.28-3.74-4.49-5.58-6.7-.76-.91-1.53-1.82-2.28-2.74-.94-1.15-.88-2.35.17-3.4,1.45-1.46,2.91-2.9,4.35-4.37.55-.56,1.19-.83,1.98-.83,4.51.01,9.02.01,13.54,0,.81,0,1.47.27,2.04.85,1.44,1.47,2.9,2.91,4.35,4.37,1.02,1.03,1.09,2.24.17,3.36-2.46,2.97-4.93,5.93-7.4,8.89-.15.18-.28.36-.46.58,6.93,1.84,12.16,5.82,15.49,12.14,2.61,4.96,3.3,10.25,2.16,15.72-2.33,11.15-12.41,19.26-24.17,18.74-10.87-.48-20.23-8.45-22.18-19.46-2.29-12.96,6.34-24.64,17.81-27.14Zm5.41,39.64c9.16.02,16.62-7.39,16.67-16.56.04-9.19-7.39-16.67-16.59-16.69-9.2-.03-16.67,7.39-16.7,16.58-.03,9.18,7.42,16.65,16.62,16.67Z"/>
  </g>
</svg>