<?xml version="1.0" encoding="UTF-8"?>
<svg id="Camada_2" data-name="Camada 2" xmlns="http://www.w3.org/2000/svg" viewBox="0 0 1009.6 221.06">
  <defs>
    <style>
      .cls-1 {
        fill: #fff;
        stroke-width: 0px;
      }
    </style>
  </defs>
  <g id="Camada_1-2" data-name="Camada 1">
    <g>
      <g>
        <path class="cls-1" d="m158.16,80.58c0-9.55-1.74-18.7-4.86-27.17-.04-.17-.09-.33-.15-.49-.31-.83-.63-1.65-.97-2.46-1.06-2.57-4.2-3.5-6.53-1.99-.03.02-.05.03-.08.05-1.8,1.16-2.46,3.46-1.64,5.44.06.15.11.29.17.44,0,.02,0,.05,0,.07,3.26,8.08,5.08,16.88,5.08,26.11,0,13.93-4.1,26.91-11.13,37.84-2.37-1.01-5.03-1.48-7.82-1.24-7.76.66-14.1,6.9-14.87,14.65-1.03,10.33,7.61,18.99,17.94,17.98,7.75-.76,13.99-7.07,14.68-14.83.36-4.05-.78-7.83-2.91-10.86,8.26-12.5,13.08-27.47,13.08-43.54Zm-19.21,54.38c-.56,2.92-2.91,5.27-5.82,5.82-5.22,1-9.73-3.51-8.73-8.73.56-2.92,2.91-5.27,5.82-5.82,5.22-1,9.73,3.51,8.73,8.73Z"/>
        <path class="cls-1" d="m79.14,159.78c9.55-.04,18.69-1.81,27.16-4.97.16-.04.33-.09.49-.16.82-.31,1.64-.64,2.45-.98,2.56-1.07,3.48-4.21,1.96-6.54-.02-.03-.03-.05-.05-.08-1.17-1.8-3.46-2.44-5.44-1.62-.14.06-.29.11-.44.17-.02,0-.05,0-.07,0-8.07,3.29-16.86,5.15-26.09,5.19-13.93.05-26.92-3.99-37.88-10.98,1-2.38,1.46-5.04,1.21-7.83-.69-7.76-6.95-14.07-14.71-14.81-10.34-.99-18.96,7.69-17.91,18.01.79,7.75,7.12,13.96,14.88,14.62,4.06.34,7.83-.81,10.85-2.95,12.53,8.21,27.52,12.97,43.59,12.91Zm-54.45-19c-2.92-.55-5.28-2.89-5.85-5.8-1.02-5.21,3.48-9.74,8.7-8.76,2.92.55,5.28,2.89,5.85,5.8,1.02,5.21-3.48,9.74-8.7,8.76Z"/>
        <path class="cls-1" d="m0,79.76c.03,9.55,1.8,18.69,4.96,27.16.04.16.09.33.15.49.31.82.64,1.64.98,2.45,1.07,2.56,4.21,3.48,6.54,1.96.03-.02.05-.03.08-.05,1.8-1.17,2.44-3.46,1.62-5.44-.06-.14-.11-.29-.17-.44,0-.02,0-.05,0-.07-3.29-8.07-5.15-16.86-5.18-26.09-.05-13.93,4-26.92,10.99-37.88,2.38,1,5.04,1.46,7.83,1.21,7.76-.69,14.07-6.95,14.82-14.71.99-10.34-7.68-18.96-18.01-17.91-7.75.79-13.96,7.12-14.63,14.88-.35,4.06.81,7.83,2.95,10.85C4.7,48.7-.06,63.68,0,79.76ZM19.01,25.31c.55-2.92,2.89-5.28,5.8-5.84,5.21-1.02,9.74,3.48,8.76,8.7-.55,2.92-2.89,5.28-5.8,5.84-5.21,1.02-9.74-3.48-8.76-8.7Z"/>
        <path class="cls-1" d="m78.36.85c-9.55.13-18.67,1.99-27.11,5.23-.16.04-.33.1-.49.16-.82.32-1.64.66-2.44,1-2.55,1.1-3.44,4.25-1.9,6.56.02.03.03.05.05.08,1.19,1.79,3.49,2.41,5.46,1.56.14-.06.29-.12.44-.18.02,0,.05,0,.07,0,8.03-3.37,16.81-5.32,26.04-5.44,13.93-.19,26.96,3.73,37.99,10.6-.98,2.39-1.41,5.05-1.13,7.84.77,7.75,7.09,14,14.86,14.67,10.35.89,18.88-7.87,17.73-18.19-.86-7.74-7.26-13.89-15.03-14.47-4.06-.3-7.82.89-10.82,3.06C109.47,5.24,94.43.63,78.36.85Zm54.64,18.46c2.92.52,5.31,2.83,5.9,5.74,1.07,5.2-3.38,9.77-8.61,8.85-2.92-.52-5.31-2.83-5.9-5.74-1.07-5.2,3.38-9.77,8.61-8.85Z"/>
      </g>
      <g>
        <path class="cls-1" d="m405.52,70.91c-23.35,3.21-43.52,5.98-43.52,34.14,0,16.76,11.62,26.38,31.88,26.38,9.58,0,18.05-2.49,24.49-7.19.67-.49,1.49-.6,2.27-.31.78.3,1.35.96,1.53,1.79l.02.08c.41,1.86,2.03,3.16,3.93,3.16h17.23c2.21,0,4.01-1.8,4.01-4.01v-55.73c0-25.98-12.52-37.56-40.6-37.56-25.78,0-39.75,10.1-41.54,30.02-.1,1.1.28,2.21,1.03,3.03.76.84,1.85,1.32,2.98,1.32h16.85c1.85,0,3.46-1.29,3.91-3.14,1.79-7.3,6.76-10.7,15.64-10.7,9.36,0,14.95,3.32,14.95,8.89s-2.09,8.05-15.06,9.84Zm-17.31,31.68c0-6.61,2.94-10.99,17.94-13.83,5.66-1.06,9.14-1.92,11.62-2.88.28-.11.56-.16.84-.16.48,0,.95.15,1.37.44.68.48,1.07,1.25,1.06,2.08l-.08,4.47c-.19,10.94-9.67,19.52-21.59,19.52-7.51,0-11.16-3.16-11.16-9.64Zm34.74,23.05h0s0,0,0,0h0Z"/>
        <rect class="cls-1" x="456.6" width="26.21" height="128.97" rx="4.01" ry="4.01"/>
        <path class="cls-1" d="m532.73,70.91c-23.35,3.21-43.52,5.98-43.52,34.14,0,16.76,11.62,26.38,31.88,26.38,9.58,0,18.05-2.49,24.49-7.19.67-.49,1.49-.6,2.27-.31.78.3,1.35.96,1.53,1.79l.02.08c.41,1.86,2.03,3.16,3.93,3.16h17.23c2.21,0,4.01-1.8,4.01-4.01v-55.73c0-25.98-12.52-37.56-40.6-37.56-25.78,0-39.75,10.1-41.54,30.02-.1,1.1.28,2.21,1.03,3.03.76.84,1.85,1.32,2.98,1.32h16.85c1.85,0,3.46-1.29,3.91-3.14,1.79-7.3,6.76-10.7,15.64-10.7,9.36,0,14.95,3.32,14.95,8.89s-2.09,8.05-15.06,9.84Zm-17.31,31.68c0-6.61,2.94-10.99,17.94-13.83,5.66-1.06,9.14-1.92,11.62-2.88.28-.11.56-.16.84-.16.48,0,.95.15,1.37.44.68.48,1.07,1.25,1.06,2.08l-.08,4.47c-.19,10.94-9.67,19.52-21.59,19.52-7.51,0-11.16-3.16-11.16-9.64Zm34.74,23.05h0s0,0,0,0h0Z"/>
        <path class="cls-1" d="m636.28,31.66c-9.29,0-16.89,2.94-23.23,9-.78.75-1.75.72-2.4.45-.79-.34-1.27-1.07-1.27-1.94V3.72c0-2.05-1.67-3.72-3.72-3.72h-18.4c-2.05,0-3.72,1.67-3.72,3.72v121.54c0,2.05,1.67,3.72,3.72,3.72h17.88c2.01,0,3.68-1.64,3.71-3.65v-.39c.02-1.04.7-1.69,1.33-1.95.81-.33,1.67-.17,2.3.44,5.5,5.32,12.8,8.01,21.7,8.01,25.01,0,41.16-19.95,41.16-50.83s-15.34-48.94-39.08-48.94Zm12.49,50.64c0,16.17-8.33,27.47-20.26,27.47s-20.07-10.91-20.07-25.95c0-19.61,6.69-29.55,19.88-29.55s20.45,9.17,20.45,28.03Z"/>
        <path class="cls-1" d="m725.2,31.66c-25.92,0-39.9,10.21-41.57,30.34-.09,1.03.27,2.05.97,2.82.7.77,1.71,1.21,2.74,1.21h17.41c1.73,0,3.22-1.2,3.62-2.91,1.74-7.46,6.73-10.93,15.69-10.93s14.95,3.32,14.95,8.89-2.09,8.05-15.06,9.84c-23.35,3.21-43.52,5.98-43.52,34.14,0,16.76,11.62,26.38,31.88,26.38,9.78,0,18.38-2.58,24.86-7.47.57-.43,1.3-.53,1.99-.27.7.26,1.2.85,1.35,1.57.05.26.11.53.17.78.39,1.72,1.89,2.92,3.63,2.92h17.77c2.05,0,3.72-1.67,3.72-3.72v-56.03c0-25.98-12.52-37.56-40.6-37.56Zm14.29,56.13l-.09,4.93c-.19,10.94-9.67,19.52-21.59,19.52-7.51,0-11.16-3.16-11.16-9.64s2.94-10.99,17.94-13.83c5.94-1.11,9.39-1.98,11.93-3,.27-.11.55-.16.83-.16.43,0,.85.13,1.22.39.6.41.93,1.07.92,1.8Z"/>
        <path class="cls-1" d="m830.63,54.33v-18.96c0-2.05-1.67-3.72-3.72-3.72h-.29c-7.75,0-15.92.59-23.22,7.69-.78.75-1.74.73-2.38.46-.81-.34-1.29-1.07-1.29-1.96,0-2.05-1.67-3.72-3.72-3.72h-17.26c-2.05,0-3.72,1.67-3.72,3.72v87.41c0,2.05,1.67,3.72,3.72,3.72h18.78c2.05,0,3.72-1.67,3.72-3.72v-45.6c0-14.65,7.12-21.78,21.78-21.78,1.17,0,2.36.05,3.52.15,1.05.08,2.11-.26,2.89-.97.77-.71,1.2-1.67,1.2-2.72Z"/>
        <path class="cls-1" d="m874.02,31.66c-28.32,0-45.91,18.46-45.91,48.18,0,34.23,15.96,51.59,47.42,51.59,19.03,0,33.73-9.66,40.33-26.51.44-1.12.29-2.38-.39-3.38-.7-1.02-1.85-1.64-3.09-1.64h-19.24c-1.45,0-2.79.89-3.4,2.25-2.24,4.97-8.26,8.18-15.33,8.18-10.65,0-18.03-7.17-19.76-19.17-.09-.6.09-1.18.49-1.64.42-.48,1.02-.75,1.65-.75h58.07c1.01,0,1.96-.4,2.67-1.13.7-.71,1.07-1.65,1.05-2.64-.8-34.9-16.2-53.35-44.54-53.35Zm16.86,39.25c-.42.48-1.02.75-1.65.75h-31.59c-.64,0-1.24-.28-1.65-.78-.42-.5-.59-1.17-.46-1.81,1.89-9.91,8.85-16.32,17.73-16.32,7.3,0,16.42,4.33,18.11,16.54.08.59-.09,1.16-.49,1.62Z"/>
        <path class="cls-1" d="m993.75,76.46c-4.74-1.87-10.78-3.44-17.17-5.1-3.48-.9-7.08-1.84-10.77-2.89-10.09-2.86-14.6-4.96-14.6-9.86s4.52-6.99,13.82-6.99c10.02,0,14.57,2.65,16.24,9.44.42,1.7,1.9,2.88,3.61,2.88h18.04c1.07,0,2.1-.47,2.81-1.28.7-.81,1.03-1.88.89-2.93-2.55-18.89-15.9-28.07-40.83-28.07-14.95,0-40.03,3.7-40.03,28.46,0,9.46,3.96,16.57,12.12,21.71,6.91,4.34,15.97,7.02,31.33,10.72,8.15,1.94,14.38,3.9,14.38,9.86,0,8.02-10.99,8.89-15.71,8.89-10.49,0-17.19-3.94-18.37-10.8-.31-1.76-1.84-3.04-3.65-3.04h-19.58c-1.07,0-2.09.46-2.8,1.26-.69.78-1.02,1.82-.9,2.84,2.21,18.71,19.22,29.88,45.49,29.88s41.54-11.55,41.54-31.68c0-11.68-4.89-18.86-15.85-23.29Z"/>
      </g>
      <path class="cls-1" d="m330.91,71.69v53.27c0,2.21,1.8,4.01,4.01,4.01h17.61c2.21,0,4.01-1.8,4.01-4.01v-61.42c0-18.17-14.03-31.88-32.63-31.88-10.57,0-18.24,3.62-23.45,11.06-.46.65-1.17,1.03-1.95,1.05-.02,0-.04,0-.06,0-.76,0-1.46-.35-1.94-.95-6.41-8.24-12.63-11.16-23.78-11.16-10.06,0-16.94,2.54-22.32,8.23-.83.88-1.91.88-2.66.58-.75-.3-1.55-1.05-1.55-2.33,0-2.21-1.8-4.01-4.01-4.01h-16.67c-2.21,0-4.01,1.8-4.01,4.01v86.81c0,2.21,1.8,4.01,4.01,4.01h18.18c2.21,0,4.01-1.8,4.01-4.01v-53.46c0-11.56,4.78-17.42,14.2-17.42s14,2.6,14,17.99v52.89c0,2.21,1.8,4.01,4.01,4.01h18.18c2.21,0,4.01-1.8,4.01-4.01v-52.51c0-11.08,6.29-19.12,14.95-19.12,8.13,0,13.82,7.55,13.82,18.36Z"/>
      <g>
        <path class="cls-1" d="m726.78,172.68l-10.11,32.41h-5.56l-7.81-25.72-7.81,25.72h-5.56l-10.17-32.41h5.5l7.45,27.2,8.04-27.2h5.5l7.87,27.26,7.33-27.26h5.32Z"/>
        <path class="cls-1" d="m773.32,190.9h-25.9c.2,3.19,1.29,5.69,3.28,7.48,1.99,1.79,4.41,2.69,7.24,2.69,2.33,0,4.27-.54,5.82-1.63,1.56-1.08,2.65-2.53,3.28-4.35h5.8c-.87,3.11-2.6,5.65-5.2,7.6-2.6,1.95-5.83,2.93-9.7,2.93-3.08,0-5.82-.69-8.25-2.07-2.42-1.38-4.33-3.34-5.71-5.88-1.38-2.54-2.07-5.49-2.07-8.84s.67-6.29,2.01-8.81c1.34-2.52,3.22-4.46,5.65-5.82,2.42-1.36,5.21-2.04,8.37-2.04s5.8.67,8.16,2.01c2.37,1.34,4.19,3.18,5.47,5.53,1.28,2.35,1.92,5,1.92,7.95,0,1.03-.06,2.11-.18,3.25Zm-6.74-9.67c-.91-1.48-2.14-2.6-3.7-3.37-1.56-.77-3.28-1.15-5.17-1.15-2.72,0-5.04.87-6.95,2.6-1.91,1.74-3.01,4.14-3.28,7.21h20.46c0-2.05-.45-3.81-1.36-5.29Z"/>
        <path class="cls-1" d="m792.42,180.04c1.34-2.5,3.18-4.44,5.53-5.82,2.35-1.38,4.98-2.07,7.89-2.07,2.52,0,4.87.58,7.04,1.74,2.17,1.16,3.82,2.69,4.97,4.58v-17.15h5.44v43.76h-5.44v-6.09c-1.06,1.93-2.64,3.52-4.73,4.76-2.09,1.24-4.53,1.86-7.33,1.86s-5.49-.71-7.84-2.13c-2.35-1.42-4.19-3.41-5.53-5.97-1.34-2.56-2.01-5.48-2.01-8.75s.67-6.22,2.01-8.72Zm23.95,2.4c-.99-1.81-2.32-3.2-3.99-4.17-1.68-.97-3.52-1.45-5.53-1.45s-3.84.47-5.5,1.42c-1.66.95-2.98,2.33-3.96,4.14-.99,1.81-1.48,3.94-1.48,6.39s.49,4.64,1.48,6.48c.98,1.83,2.31,3.23,3.96,4.2,1.66.97,3.49,1.45,5.5,1.45s3.85-.48,5.53-1.45c1.68-.97,3.01-2.37,3.99-4.2.98-1.83,1.48-3.97,1.48-6.42s-.49-4.57-1.48-6.39Z"/>
        <path class="cls-1" d="m844.22,180.04c1.34-2.5,3.18-4.44,5.53-5.82,2.35-1.38,4.98-2.07,7.89-2.07,2.52,0,4.87.58,7.04,1.74,2.17,1.16,3.82,2.69,4.97,4.58v-17.15h5.44v43.76h-5.44v-6.09c-1.06,1.93-2.64,3.52-4.73,4.76-2.09,1.24-4.53,1.86-7.33,1.86s-5.49-.71-7.84-2.13c-2.35-1.42-4.19-3.41-5.53-5.97-1.34-2.56-2.01-5.48-2.01-8.75s.67-6.22,2.01-8.72Zm23.95,2.4c-.99-1.81-2.32-3.2-3.99-4.17-1.68-.97-3.52-1.45-5.53-1.45s-3.84.47-5.5,1.42c-1.66.95-2.98,2.33-3.96,4.14-.99,1.81-1.48,3.94-1.48,6.39s.49,4.64,1.48,6.48c.98,1.83,2.31,3.23,3.96,4.2,1.66.97,3.49,1.45,5.5,1.45s3.85-.48,5.53-1.45c1.68-.97,3.01-2.37,3.99-4.2.98-1.83,1.48-3.97,1.48-6.42s-.49-4.57-1.48-6.39Z"/>
        <path class="cls-1" d="m896.2,166.35c-.71-.71-1.06-1.58-1.06-2.6s.35-1.89,1.06-2.6c.71-.71,1.58-1.06,2.6-1.06s1.82.35,2.51,1.06c.69.71,1.03,1.58,1.03,2.6s-.35,1.89-1.03,2.6c-.69.71-1.53,1.06-2.51,1.06s-1.89-.35-2.6-1.06Zm5.2,6.33v32.41h-5.38v-32.41h5.38Z"/>
        <path class="cls-1" d="m947.77,175.67c2.44,2.39,3.67,5.82,3.67,10.32v19.1h-5.32v-18.33c0-3.23-.81-5.71-2.42-7.42-1.62-1.71-3.82-2.57-6.62-2.57s-5.1.89-6.77,2.66c-1.68,1.77-2.51,4.36-2.51,7.75v17.92h-5.38v-32.41h5.38v4.61c1.06-1.66,2.51-2.94,4.35-3.84,1.83-.91,3.85-1.36,6.06-1.36,3.94,0,7.14,1.19,9.58,3.58Z"/>
        <path class="cls-1" d="m992.8,173.98c2.11,1.22,3.68,2.76,4.7,4.61v-5.91h5.44v33.12c0,2.96-.63,5.59-1.89,7.89-1.26,2.31-3.07,4.11-5.41,5.41-2.35,1.3-5.08,1.95-8.19,1.95-4.26,0-7.81-1.01-10.64-3.02-2.84-2.01-4.51-4.75-5.03-8.22h5.32c.59,1.97,1.81,3.56,3.67,4.76,1.85,1.2,4.08,1.8,6.68,1.8,2.96,0,5.37-.93,7.24-2.78,1.87-1.85,2.81-4.46,2.81-7.81v-6.8c-1.06,1.89-2.64,3.47-4.73,4.73-2.09,1.26-4.53,1.89-7.33,1.89s-5.49-.71-7.84-2.13c-2.35-1.42-4.19-3.41-5.53-5.97-1.34-2.56-2.01-5.48-2.01-8.75s.67-6.22,2.01-8.72c1.34-2.5,3.18-4.44,5.53-5.82,2.35-1.38,4.96-2.07,7.84-2.07s5.25.61,7.36,1.83Zm3.22,8.46c-.99-1.81-2.32-3.2-3.99-4.17-1.68-.97-3.52-1.45-5.53-1.45s-3.84.47-5.5,1.42c-1.66.95-2.98,2.33-3.96,4.14-.99,1.81-1.48,3.94-1.48,6.39s.49,4.64,1.48,6.48c.98,1.83,2.31,3.23,3.96,4.2,1.66.97,3.49,1.45,5.5,1.45s3.85-.48,5.53-1.45c1.68-.97,3.01-2.37,3.99-4.2.98-1.83,1.48-3.97,1.48-6.42s-.49-4.57-1.48-6.39Z"/>
      </g>
      <path class="cls-1" d="m72.87,63.98c-2.16-2.6-4.26-5.13-6.36-7.66-.87-1.04-1.74-2.08-2.6-3.13-1.07-1.31-1.01-2.68.19-3.89,1.65-1.67,3.32-3.31,4.96-4.99.63-.64,1.36-.95,2.26-.95,5.15.01,10.29.01,15.44,0,.93,0,1.68.31,2.33.97,1.64,1.67,3.31,3.32,4.96,4.99,1.16,1.17,1.24,2.56.19,3.83-2.8,3.39-5.62,6.77-8.44,10.16-.17.2-.32.41-.52.66,7.91,2.1,13.86,6.65,17.66,13.87,2.98,5.67,3.77,11.71,2.46,17.96-2.65,12.74-14.15,22-27.56,21.41-12.4-.55-23.07-9.66-25.29-22.23-2.61-14.8,7.23-28.15,20.31-31.01Zm6.21,45.3c10.49,0,18.99-8.53,18.97-19.03-.02-10.48-8.49-18.95-18.95-18.97-10.49-.01-19,8.48-19,18.98,0,10.49,8.5,19.02,18.99,19.01Z"/>
    </g>
  </g>
</svg>